<svg width="948" height="299" viewBox="0 0 948 299" fill="none" xmlns="http://www.w3.org/2000/svg">
<path d="M86.3 80.96H156.58V100.56H106.6V122.54H150.84V142.14H106.6V164.4H158.54V184H86.3V80.96ZM173.802 143.4H200.122V160.48H173.802V143.4ZM271.055 178.54C268.348 180.687 264.942 182.413 260.835 183.72C256.822 185.027 252.855 185.68 248.935 185.68C241.935 185.68 235.822 184.42 230.595 181.9C225.462 179.287 221.448 175.6 218.555 170.84C215.755 165.987 214.355 160.153 214.355 153.34C214.355 146.527 215.895 140.74 218.975 135.98C222.055 131.127 226.068 127.44 231.015 124.92C236.055 122.4 241.328 121.14 246.835 121.14C252.342 121.14 257.102 121.887 261.115 123.38C265.222 124.873 268.722 126.833 271.615 129.26L262.095 141.86C260.788 140.833 258.968 139.807 256.635 138.78C254.395 137.66 251.735 137.1 248.655 137.1C245.948 137.1 243.475 137.8 241.235 139.2C238.995 140.6 237.222 142.513 235.915 144.94C234.608 147.367 233.955 150.167 233.955 153.34C233.955 156.327 234.655 159.08 236.055 161.6C237.455 164.12 239.368 166.127 241.795 167.62C244.315 169.02 247.255 169.72 250.615 169.72C252.762 169.72 254.722 169.44 256.495 168.88C258.362 168.227 259.948 167.34 261.255 166.22L271.055 178.54ZM281.347 152.64C281.347 146.387 282.794 140.787 285.687 135.84C288.674 130.893 292.827 127.02 298.147 124.22C303.467 121.327 309.581 119.88 316.487 119.88C323.487 119.88 329.554 121.327 334.687 124.22C339.821 127.02 343.741 130.893 346.447 135.84C349.247 140.787 350.647 146.387 350.647 152.64C350.647 158.893 349.247 164.54 346.447 169.58C343.741 174.527 339.821 178.447 334.687 181.34C329.554 184.233 323.394 185.68 316.207 185.68C309.487 185.68 303.467 184.373 298.147 181.76C292.921 179.147 288.814 175.367 285.827 170.42C282.841 165.473 281.347 159.547 281.347 152.64ZM301.087 152.78C301.087 155.953 301.741 158.847 303.047 161.46C304.354 163.98 306.127 165.987 308.367 167.48C310.607 168.973 313.127 169.72 315.927 169.72C319.007 169.72 321.667 168.973 323.907 167.48C326.147 165.987 327.874 163.98 329.087 161.46C330.301 158.847 330.907 155.953 330.907 152.78C330.907 149.513 330.301 146.62 329.087 144.1C327.874 141.58 326.147 139.573 323.907 138.08C321.667 136.587 319.007 135.84 315.927 135.84C313.127 135.84 310.607 136.587 308.367 138.08C306.127 139.573 304.354 141.58 303.047 144.1C301.741 146.62 301.087 149.513 301.087 152.78ZM383.868 122.82L385.408 133.6L385.128 132.76C387.554 128.653 390.588 125.48 394.228 123.24C397.868 120.907 402.254 119.74 407.388 119.74C410.748 119.74 413.688 120.207 416.208 121.14C418.821 122.073 421.014 123.473 422.788 125.34C424.561 127.113 425.774 129.447 426.428 132.34L425.728 132.48C428.341 128.653 431.468 125.573 435.108 123.24C438.841 120.907 442.714 119.74 446.728 119.74C452.794 119.74 457.601 121.467 461.148 124.92C464.788 128.28 466.654 132.667 466.748 138.08V184H447.288V146.2C447.194 143.493 446.774 141.3 446.028 139.62C445.281 137.847 443.554 136.867 440.848 136.68C437.674 136.68 434.968 137.8 432.728 140.04C430.581 142.187 428.948 144.987 427.828 148.44C426.801 151.8 426.288 155.3 426.288 158.94V184H406.688V146.2C406.594 143.493 406.081 141.3 405.148 139.62C404.308 137.847 402.534 136.867 399.828 136.68C396.748 136.68 394.134 137.8 391.988 140.04C389.934 142.187 388.348 144.94 387.228 148.3C386.201 151.66 385.688 155.113 385.688 158.66V184H366.088V122.82H383.868ZM504.727 122.82L506.267 133.6L505.987 132.76C508.414 128.653 511.447 125.48 515.087 123.24C518.727 120.907 523.114 119.74 528.247 119.74C531.607 119.74 534.547 120.207 537.067 121.14C539.681 122.073 541.874 123.473 543.647 125.34C545.421 127.113 546.634 129.447 547.287 132.34L546.587 132.48C549.201 128.653 552.327 125.573 555.967 123.24C559.701 120.907 563.574 119.74 567.587 119.74C573.654 119.74 578.461 121.467 582.007 124.92C585.647 128.28 587.514 132.667 587.607 138.08V184H568.147V146.2C568.054 143.493 567.634 141.3 566.887 139.62C566.141 137.847 564.414 136.867 561.707 136.68C558.534 136.68 555.827 137.8 553.587 140.04C551.441 142.187 549.807 144.987 548.687 148.44C547.661 151.8 547.147 155.3 547.147 158.94V184H527.547V146.2C527.454 143.493 526.941 141.3 526.007 139.62C525.167 137.847 523.394 136.867 520.687 136.68C517.607 136.68 514.994 137.8 512.847 140.04C510.794 142.187 509.207 144.94 508.087 148.3C507.061 151.66 506.547 155.113 506.547 158.66V184H486.947V122.82H504.727ZM637.907 185.68C630.44 185.68 624.093 184.28 618.867 181.48C613.733 178.68 609.813 174.807 607.107 169.86C604.4 164.913 603.047 159.22 603.047 152.78C603.047 146.62 604.633 141.067 607.807 136.12C610.98 131.173 615.227 127.253 620.547 124.36C625.867 121.373 631.793 119.88 638.327 119.88C647.1 119.88 654.287 122.447 659.887 127.58C665.58 132.62 669.267 139.947 670.947 149.56L623.347 164.68L619.007 154.04L653.447 142.42L649.387 144.24C648.64 141.813 647.287 139.713 645.327 137.94C643.46 136.073 640.613 135.14 636.787 135.14C633.893 135.14 631.327 135.84 629.087 137.24C626.94 138.547 625.26 140.46 624.047 142.98C622.927 145.407 622.367 148.3 622.367 151.66C622.367 155.487 623.067 158.707 624.467 161.32C625.867 163.84 627.78 165.753 630.207 167.06C632.633 168.367 635.34 169.02 638.327 169.02C640.473 169.02 642.527 168.647 644.487 167.9C646.54 167.153 648.547 166.173 650.507 164.96L659.187 179.52C655.92 181.387 652.373 182.88 648.547 184C644.813 185.12 641.267 185.68 637.907 185.68ZM702.829 122.82L704.649 139.62L704.229 137.1C706.003 133.46 708.429 130.38 711.509 127.86C714.589 125.247 717.623 123.24 720.609 121.84C723.689 120.44 726.023 119.74 727.609 119.74L726.629 139.34C722.056 138.78 718.136 139.527 714.869 141.58C711.603 143.633 709.083 146.34 707.309 149.7C705.536 153.06 704.649 156.513 704.649 160.06V184H685.189V122.82H702.829ZM791.817 178.54C789.11 180.687 785.704 182.413 781.597 183.72C777.584 185.027 773.617 185.68 769.697 185.68C762.697 185.68 756.584 184.42 751.357 181.9C746.224 179.287 742.21 175.6 739.317 170.84C736.517 165.987 735.117 160.153 735.117 153.34C735.117 146.527 736.657 140.74 739.737 135.98C742.817 131.127 746.83 127.44 751.777 124.92C756.817 122.4 762.09 121.14 767.597 121.14C773.104 121.14 777.864 121.887 781.877 123.38C785.984 124.873 789.484 126.833 792.377 129.26L782.857 141.86C781.55 140.833 779.73 139.807 777.397 138.78C775.157 137.66 772.497 137.1 769.417 137.1C766.71 137.1 764.237 137.8 761.997 139.2C759.757 140.6 757.984 142.513 756.677 144.94C755.37 147.367 754.717 150.167 754.717 153.34C754.717 156.327 755.417 159.08 756.817 161.6C758.217 164.12 760.13 166.127 762.557 167.62C765.077 169.02 768.017 169.72 771.377 169.72C773.524 169.72 775.484 169.44 777.257 168.88C779.124 168.227 780.71 167.34 782.017 166.22L791.817 178.54ZM836.969 185.68C829.502 185.68 823.156 184.28 817.929 181.48C812.796 178.68 808.876 174.807 806.169 169.86C803.462 164.913 802.109 159.22 802.109 152.78C802.109 146.62 803.696 141.067 806.869 136.12C810.042 131.173 814.289 127.253 819.609 124.36C824.929 121.373 830.856 119.88 837.389 119.88C846.162 119.88 853.349 122.447 858.949 127.58C864.642 132.62 868.329 139.947 870.009 149.56L822.409 164.68L818.069 154.04L852.509 142.42L848.449 144.24C847.702 141.813 846.349 139.713 844.389 137.94C842.522 136.073 839.676 135.14 835.849 135.14C832.956 135.14 830.389 135.84 828.149 137.24C826.002 138.547 824.322 140.46 823.109 142.98C821.989 145.407 821.429 148.3 821.429 151.66C821.429 155.487 822.129 158.707 823.529 161.32C824.929 163.84 826.842 165.753 829.269 167.06C831.696 168.367 834.402 169.02 837.389 169.02C839.536 169.02 841.589 168.647 843.549 167.9C845.602 167.153 847.609 166.173 849.569 164.96L858.249 179.52C854.982 181.387 851.436 182.88 847.609 184C843.876 185.12 840.329 185.68 836.969 185.68Z" fill="black"/>
</svg>
